# Blender v2.79 (sub 0) OBJ File: ''
# www.blender.org
mtllib roundedPath.mtl
o Plane
v -1.000000 0.000000 1.000000
v 1.000000 0.000000 1.000000
v -1.000000 0.000000 -1.000000
v 1.000000 0.000000 -1.000000
v 7.953976 0.000000 1.000000
v 7.953976 0.000000 -1.000000
v -7.999142 0.000000 1.000000
v -10.024231 0.000000 -1.000000
v 9.095448 0.000000 1.000000
v 10.019258 0.000000 0.076190
v 9.239963 0.000000 0.988626
v 9.380919 0.000000 0.954786
v 9.514848 0.000000 0.899311
v 9.638449 0.000000 0.823568
v 9.748679 0.000000 0.729422
v 9.842825 0.000000 0.619192
v 9.918568 0.000000 0.495591
v 9.974042 0.000000 0.361663
v 10.007883 0.000000 0.220706
v 9.095448 0.000000 -1.000000
v 10.019258 0.000000 -0.076190
v 9.239963 0.000000 -0.988626
v 9.380919 0.000000 -0.954786
v 9.514848 0.000000 -0.899311
v 9.638449 0.000000 -0.823568
v 9.748679 0.000000 -0.729422
v 9.842825 0.000000 -0.619192
v 9.918568 0.000000 -0.495591
v 9.974042 0.000000 -0.361663
v 10.007883 0.000000 -0.220706
v -7.999142 0.000000 -6.954611
v -8.881483 0.000000 -7.836952
v -8.006691 0.000000 -7.069779
v -8.029207 0.000000 -7.182978
v -8.066306 0.000000 -7.292268
v -8.117353 0.000000 -7.395782
v -8.181475 0.000000 -7.491746
v -8.257574 0.000000 -7.578520
v -8.344348 0.000000 -7.654619
v -8.440312 0.000000 -7.718741
v -8.543826 0.000000 -7.769788
v -8.653116 0.000000 -7.806887
v -8.766315 0.000000 -7.829404
v -10.024231 0.000000 -6.954611
v -9.141890 0.000000 -7.836952
v -10.016683 0.000000 -7.069779
v -9.994165 0.000000 -7.182978
v -9.957067 0.000000 -7.292268
v -9.906019 0.000000 -7.395782
v -9.841898 0.000000 -7.491746
v -9.765800 0.000000 -7.578520
v -9.679025 0.000000 -7.654619
v -9.583060 0.000000 -7.718741
v -9.479547 0.000000 -7.769788
v -9.370256 0.000000 -7.806887
v -9.257058 0.000000 -7.829404
v -8.939035 0.000000 1.000000
v -10.024231 0.000000 -0.085195
v -9.274380 0.000000 0.946887
v -9.576898 0.000000 0.792746
v -9.816978 0.000000 0.552667
v -9.971118 0.000000 0.250149
v -8.482030 0.000000 -1.000000
v -7.999142 0.000000 -0.517112
v -7.999142 0.000000 -1.759378
v -8.194650 0.000000 -1.287381
v -7.803635 0.000000 -1.287381
v -8.027072 0.000000 -1.691949
v -8.055002 0.000000 -1.624521
v -8.082932 0.000000 -1.557094
v -7.971213 0.000000 -1.691949
v -7.999142 0.000000 -1.639911
v -8.026386 0.000000 -1.586913
v -8.052303 0.000000 -1.532047
v -7.943283 0.000000 -1.624521
v -7.971898 0.000000 -1.586913
v -7.999143 0.000000 -1.548045
v -8.023540 0.000000 -1.506328
v -7.915353 0.000000 -1.557093
v -7.945981 0.000000 -1.532047
v -7.974745 0.000000 -1.506328
v -7.999142 0.000000 -1.479446
v -8.138790 0.000000 -1.287381
v -8.082932 0.000000 -1.287381
v -8.027072 0.000000 -1.287381
v -8.166720 0.000000 -1.354809
v -8.118782 0.000000 -1.351075
v -8.070888 0.000000 -1.347933
v -8.023050 0.000000 -1.345985
v -8.138790 0.000000 -1.422237
v -8.098131 0.000000 -1.413705
v -8.058029 0.000000 -1.405879
v -8.018687 0.000000 -1.400243
v -8.110861 0.000000 -1.489665
v -8.076211 0.000000 -1.474326
v -8.043084 0.000000 -1.459143
v -8.013013 0.000000 -1.445957
v -7.831564 0.000000 -1.354809
v -7.859494 0.000000 -1.422237
v -7.887424 0.000000 -1.489665
v -7.859494 0.000000 -1.287381
v -7.879502 0.000000 -1.351075
v -7.900153 0.000000 -1.413705
v -7.922072 0.000000 -1.474326
v -7.915353 0.000000 -1.287381
v -7.927397 0.000000 -1.347933
v -7.940255 0.000000 -1.405879
v -7.955200 0.000000 -1.459143
v -7.971212 0.000000 -1.287381
v -7.975233 0.000000 -1.345985
v -7.979598 0.000000 -1.400243
v -7.985271 0.000000 -1.445958
v -7.711761 0.000000 -1.195508
v -7.711761 0.000000 -0.804492
v -7.239765 0.000000 -1.000000
v -7.711761 0.000000 -1.139648
v -7.711761 0.000000 -1.083789
v -7.711761 0.000000 -1.027930
v -7.644333 0.000000 -1.167578
v -7.648067 0.000000 -1.119640
v -7.651209 0.000000 -1.071745
v -7.653157 0.000000 -1.023908
v -7.576905 0.000000 -1.139648
v -7.585437 0.000000 -1.098989
v -7.593263 0.000000 -1.058887
v -7.598899 0.000000 -1.019545
v -7.509477 0.000000 -1.111719
v -7.524816 0.000000 -1.077070
v -7.539999 0.000000 -1.043942
v -7.553185 0.000000 -1.013871
v -7.644333 0.000000 -0.832422
v -7.576906 0.000000 -0.860352
v -7.509477 0.000000 -0.888282
v -7.711761 0.000000 -0.860352
v -7.648067 0.000000 -0.880360
v -7.585438 0.000000 -0.901011
v -7.524815 0.000000 -0.922931
v -7.711761 0.000000 -0.916211
v -7.651209 0.000000 -0.928255
v -7.593264 0.000000 -0.941113
v -7.539999 0.000000 -0.956058
v -7.711761 0.000000 -0.972070
v -7.653157 0.000000 -0.976091
v -7.598899 0.000000 -0.980455
v -7.553185 0.000000 -0.986129
v -7.307193 0.000000 -1.027930
v -7.374621 0.000000 -1.055860
v -7.442049 0.000000 -1.083789
v -7.307193 0.000000 -0.972070
v -7.359231 0.000000 -1.000000
v -7.412230 0.000000 -1.027244
v -7.467095 0.000000 -1.053161
v -7.374621 0.000000 -0.944140
v -7.412230 0.000000 -0.972756
v -7.451098 0.000000 -1.000000
v -7.492814 0.000000 -1.024397
v -7.442049 0.000000 -0.916211
v -7.467095 0.000000 -0.946839
v -7.492815 0.000000 -0.975603
v -7.519696 0.000000 -1.000000
vn 0.0000 1.0000 0.0000
usemtl None
s off
f 1//1 2//1 4//1 3//1
f 4//1 2//1 5//1 6//1
f 6//1 5//1 9//1 11//1 12//1 13//1 14//1 15//1 16//1 17//1 18//1 19//1 10//1 21//1 30//1 29//1 28//1 27//1 26//1 25//1 24//1 23//1 22//1 20//1
f 1//1 3//1 115//1 149//1 153//1 157//1 133//1 132//1 131//1 114//1 64//1 7//1
f 8//1 63//1 66//1 86//1 90//1 94//1 70//1 69//1 68//1 65//1 31//1 33//1 34//1 35//1 36//1 37//1 38//1 39//1 40//1 41//1 42//1 43//1 32//1 45//1 56//1 55//1 54//1 53//1 52//1 51//1 50//1 49//1 48//1 47//1 46//1 44//1
f 7//1 64//1 63//1 8//1 58//1 62//1 61//1 60//1 59//1 57//1
f 65//1 68//1 72//1 71//1
f 68//1 69//1 73//1 72//1
f 69//1 70//1 74//1 73//1
f 70//1 94//1 95//1 74//1
f 71//1 72//1 76//1 75//1
f 72//1 73//1 77//1 76//1
f 73//1 74//1 78//1 77//1
f 74//1 95//1 96//1 78//1
f 75//1 76//1 80//1 79//1
f 76//1 77//1 81//1 80//1
f 77//1 78//1 82//1 81//1
f 78//1 96//1 97//1 82//1
f 66//1 83//1 87//1 86//1
f 83//1 84//1 88//1 87//1
f 84//1 85//1 89//1 88//1
f 85//1 109//1 110//1 89//1
f 86//1 87//1 91//1 90//1
f 87//1 88//1 92//1 91//1
f 88//1 89//1 93//1 92//1
f 89//1 110//1 111//1 93//1
f 90//1 91//1 95//1 94//1
f 91//1 92//1 96//1 95//1
f 92//1 93//1 97//1 96//1
f 93//1 111//1 112//1 97//1
f 67//1 98//1 102//1 101//1
f 98//1 99//1 103//1 102//1
f 99//1 100//1 104//1 103//1
f 100//1 79//1 80//1 104//1
f 101//1 102//1 106//1 105//1
f 102//1 103//1 107//1 106//1
f 103//1 104//1 108//1 107//1
f 104//1 80//1 81//1 108//1
f 105//1 106//1 110//1 109//1
f 106//1 107//1 111//1 110//1
f 107//1 108//1 112//1 111//1
f 108//1 81//1 82//1 112//1
f 82//1 97//1 112//1
f 113//1 116//1 120//1 119//1
f 116//1 117//1 121//1 120//1
f 117//1 118//1 122//1 121//1
f 118//1 142//1 143//1 122//1
f 119//1 120//1 124//1 123//1
f 120//1 121//1 125//1 124//1
f 121//1 122//1 126//1 125//1
f 122//1 143//1 144//1 126//1
f 123//1 124//1 128//1 127//1
f 124//1 125//1 129//1 128//1
f 125//1 126//1 130//1 129//1
f 126//1 144//1 145//1 130//1
f 114//1 131//1 135//1 134//1
f 131//1 132//1 136//1 135//1
f 132//1 133//1 137//1 136//1
f 133//1 157//1 158//1 137//1
f 134//1 135//1 139//1 138//1
f 135//1 136//1 140//1 139//1
f 136//1 137//1 141//1 140//1
f 137//1 158//1 159//1 141//1
f 138//1 139//1 143//1 142//1
f 139//1 140//1 144//1 143//1
f 140//1 141//1 145//1 144//1
f 141//1 159//1 160//1 145//1
f 115//1 146//1 150//1 149//1
f 146//1 147//1 151//1 150//1
f 147//1 148//1 152//1 151//1
f 148//1 127//1 128//1 152//1
f 149//1 150//1 154//1 153//1
f 150//1 151//1 155//1 154//1
f 151//1 152//1 156//1 155//1
f 152//1 128//1 129//1 156//1
f 153//1 154//1 158//1 157//1
f 154//1 155//1 159//1 158//1
f 155//1 156//1 160//1 159//1
f 156//1 129//1 130//1 160//1
f 130//1 145//1 160//1
f 67//1 101//1 105//1 109//1 85//1 84//1 83//1 66//1 63//1 64//1 114//1 134//1 138//1 142//1 118//1 117//1 116//1 113//1
