# Blender v2.79 (sub 0) OBJ File: ''
# www.blender.org
mtllib roundPathOutline2.mtl
o Plane
v -1.232873 -0.000000 1.232873
v 1.232873 -0.000000 1.232873
v 1.232873 0.000000 -1.232873
v -1.232873 0.000000 -1.232873
v 9.806242 -0.000000 1.232873
v 9.806242 0.000000 -1.232873
v 11.213531 -0.000000 1.232873
v 11.391700 -0.000000 1.218850
v 11.565482 -0.000000 1.177130
v 11.730598 -0.000000 1.108736
v 11.882983 -0.000000 1.015355
v 12.018883 -0.000000 0.899285
v 12.134953 -0.000000 0.763385
v 12.228333 -0.000000 0.611001
v 12.296726 -0.000000 0.445885
v 12.338449 -0.000000 0.272102
v 12.352471 -0.000000 0.093933
v 12.352471 0.000000 -0.093933
v 12.338449 0.000000 -0.272102
v 12.296726 0.000000 -0.445885
v 12.228333 0.000000 -0.611001
v 12.134953 0.000000 -0.763385
v 12.018883 0.000000 -0.899285
v 11.882983 0.000000 -1.015355
v 11.730598 0.000000 -1.108736
v 11.565482 0.000000 -1.177130
v 11.391700 0.000000 -1.218850
v 11.213531 0.000000 -1.232873
v -8.925711 0.000000 -1.232873
v -9.008841 0.000000 -1.198439
v -9.091970 0.000000 -1.164005
v -9.175101 0.000000 -1.129572
v -9.258231 0.000000 -1.095139
v -9.341363 0.000000 -1.060705
v -9.424491 0.000000 -1.026271
v -9.507622 0.000000 -0.991836
v -9.861926 0.000000 -0.637533
v -9.861926 -0.000000 1.232873
v -12.358603 0.000000 -1.232873
v -10.457265 0.000000 -1.232873
v -10.102962 0.000000 -1.587177
v -12.358603 0.000000 -0.105035
v -12.293121 -0.000000 0.308402
v -12.103087 -0.000000 0.681368
v -11.807098 -0.000000 0.977355
v -11.434132 -0.000000 1.167391
v -11.020695 -0.000000 1.232873
v -10.034094 0.000000 -1.587177
v -9.965229 0.000000 -1.587177
v -9.896360 0.000000 -1.587177
v -9.827492 0.000000 -1.587177
v -9.620891 0.000000 -1.587177
v -9.689758 0.000000 -1.587177
v -9.758624 0.000000 -1.587177
v -9.507622 0.000000 -1.473909
v -9.507622 0.000000 -1.405041
v -9.429095 0.000000 -1.380374
v -9.424491 0.000000 -1.439475
v -9.507622 0.000000 -1.336174
v -9.432968 0.000000 -1.321325
v -9.507622 0.000000 -1.267307
v -9.435370 0.000000 -1.262349
v -9.507622 0.000000 -1.198439
v -9.435370 0.000000 -1.203396
v -9.351880 0.000000 -1.354914
v -9.341361 0.000000 -1.405041
v -9.361528 0.000000 -1.305473
v -9.368477 0.000000 -1.256969
v -9.368477 0.000000 -1.208776
v -9.277143 0.000000 -1.327891
v -9.258231 0.000000 -1.370608
v -9.295861 0.000000 -1.287048
v -9.312118 0.000000 -1.249974
v -9.312118 0.000000 -1.215772
v -9.429095 0.000000 -1.085372
v -9.507622 0.000000 -1.060705
v -9.351881 0.000000 -1.110832
v -9.277141 0.000000 -1.137857
v -9.205979 0.000000 -1.167332
v -9.432968 0.000000 -1.144421
v -9.507622 0.000000 -1.129572
v -9.361530 0.000000 -1.160273
v -9.295861 0.000000 -1.178698
v -9.237689 0.000000 -1.202795
v -9.270830 0.000000 -1.232873
v -9.008841 0.000000 -1.267307
v -9.072997 0.000000 -1.232873
v -9.091970 0.000000 -1.301741
v -9.138338 0.000000 -1.266461
v -9.175101 0.000000 -1.336174
v -9.205979 0.000000 -1.298414
v -9.138338 0.000000 -1.199285
v -9.186257 0.000000 -1.232873
v -9.237688 0.000000 -1.262951
vn 0.0000 1.0000 0.0000
usemtl None
s 1
f 1//1 2//1 3//1 4//1
f 3//1 2//1 5//1 6//1
f 6//1 5//1 7//1 8//1 9//1 10//1 11//1 12//1 13//1 14//1 15//1 16//1 17//1 18//1 19//1 20//1 21//1 22//1 23//1 24//1 25//1 26//1 27//1 28//1
f 1//1 4//1 29//1 30//1 31//1 32//1 33//1 34//1 35//1 36//1 37//1 38//1
f 38//1 37//1 40//1 39//1 42//1 43//1 44//1 45//1 46//1 47//1
f 55//1 56//1 57//1 58//1
f 56//1 59//1 60//1 57//1
f 59//1 61//1 62//1 60//1
f 61//1 63//1 64//1 62//1
f 58//1 57//1 65//1 66//1
f 57//1 60//1 67//1 65//1
f 60//1 62//1 68//1 67//1
f 62//1 64//1 69//1 68//1
f 66//1 65//1 70//1 71//1
f 65//1 67//1 72//1 70//1
f 67//1 68//1 73//1 72//1
f 68//1 69//1 74//1 73//1
f 36//1 35//1 75//1 76//1
f 35//1 34//1 77//1 75//1
f 34//1 33//1 78//1 77//1
f 33//1 32//1 79//1 78//1
f 76//1 75//1 80//1 81//1
f 75//1 77//1 82//1 80//1
f 77//1 78//1 83//1 82//1
f 78//1 79//1 84//1 83//1
f 81//1 80//1 64//1 63//1
f 80//1 82//1 69//1 64//1
f 82//1 83//1 74//1 69//1
f 83//1 84//1 85//1 74//1
f 29//1 86//1 87//1 30//1
f 86//1 88//1 89//1 87//1
f 88//1 90//1 91//1 89//1
f 90//1 71//1 70//1 91//1
f 30//1 87//1 92//1 31//1
f 87//1 89//1 93//1 92//1
f 89//1 91//1 94//1 93//1
f 91//1 70//1 72//1 94//1
f 31//1 92//1 79//1 32//1
f 92//1 93//1 84//1 79//1
f 93//1 94//1 85//1 84//1
f 94//1 72//1 73//1 85//1
f 73//1 74//1 85//1
f 52//1 53//1 54//1 51//1 50//1 49//1 48//1 41//1 40//1 37//1 36//1 76//1 81//1 63//1 61//1 59//1 56//1 55//1
